<svg width="33" height="29" viewBox="0 0 33 29" fill="none" xmlns="http://www.w3.org/2000/svg">
<path d="M11.2054 2.07143C12.2647 2.07143 13.3001 2.37515 14.1809 2.94418C15.0616 3.5132 15.7481 4.32199 16.1534 5.26825C16.5588 6.21451 16.6648 7.25574 16.4582 8.26029C16.2515 9.26483 15.7415 10.1876 14.9925 10.9118C14.2435 11.636 13.2892 12.1293 12.2503 12.3291C11.2114 12.5289 10.1345 12.4263 9.15592 12.0344C8.1773 11.6424 7.34087 10.9787 6.75238 10.1271C6.16389 9.27545 5.84979 8.27422 5.84979 7.25C5.84979 5.87656 6.41404 4.55937 7.41842 3.5882C8.4228 2.61703 9.78503 2.07143 11.2054 2.07143ZM11.2054 0C9.72249 0 8.27285 0.425205 7.03982 1.22185C5.8068 2.01849 4.84577 3.15078 4.27827 4.47555C3.71077 5.80031 3.56229 7.25804 3.8516 8.6644C4.14091 10.0708 4.85501 11.3626 5.90362 12.3765C6.95222 13.3905 8.28822 14.081 9.74267 14.3607C11.1971 14.6404 12.7047 14.4969 14.0748 13.9481C15.4448 13.3994 16.6158 12.4701 17.4397 11.2779C18.2636 10.0856 18.7033 8.68392 18.7033 7.25C18.7033 5.32718 17.9134 3.48311 16.5073 2.12348C15.1011 0.763837 13.194 0 11.2054 0ZM21.9167 29H19.7745V23.8214C19.7745 22.448 19.2102 21.1308 18.2058 20.1596C17.2015 19.1885 15.8392 18.6429 14.4188 18.6429H7.99205C6.57164 18.6429 5.20941 19.1885 4.20503 20.1596C3.20065 21.1308 2.6364 22.448 2.6364 23.8214V29H0.494141V23.8214C0.494141 21.8986 1.2841 20.0545 2.69023 18.6949C4.09636 17.3353 6.00348 16.5714 7.99205 16.5714H14.4188C16.4074 16.5714 18.3145 17.3353 19.7206 18.6949C21.1268 20.0545 21.9167 21.8986 21.9167 23.8214V29ZM21.9167 2.07143H32.628V4.14286H21.9167V2.07143ZM21.9167 7.25H32.628V9.32143H21.9167V7.25ZM21.9167 12.4286H29.4146V14.5H21.9167V12.4286Z" fill="#F7EEEE"/>
</svg>
